<mxfile host="app.diagrams.net" modified="2022-01-10T14:52:06.844Z" agent="5.0 (Windows NT 10.0; Win64; x64) AppleWebKit/537.36 (KHTML, like Gecko) Chrome/96.0.4664.110 Safari/537.36" etag="BlPQbDfMCzYkAmrswyIL" version="16.2.4" type="github">
  <diagram id="F6gwLc83_imbYbFAOfWC" name="Page-1">
    <mxGraphModel dx="1182" dy="507" grid="1" gridSize="10" guides="1" tooltips="1" connect="1" arrows="1" fold="1" page="0" pageScale="1" pageWidth="850" pageHeight="1100" math="0" shadow="0">
      <root>
        <mxCell id="0" />
        <mxCell id="1" parent="0" />
        <mxCell id="LwlaiK6x1HRkzKrDF9eZ-1" value="Hello, world" style="whiteSpace=wrap;html=1;aspect=fixed;fillColor=#dae8fc;strokeColor=#6c8ebf;" vertex="1" parent="1">
          <mxGeometry x="-40" y="30" width="140" height="140" as="geometry" />
        </mxCell>
        <mxCell id="LwlaiK6x1HRkzKrDF9eZ-2" value="Hello, develop branch" style="rounded=1;whiteSpace=wrap;html=1;fillColor=#fff2cc;strokeColor=#d6b656;" vertex="1" parent="1">
          <mxGeometry x="170" y="70" width="160" height="60" as="geometry" />
        </mxCell>
      </root>
    </mxGraphModel>
  </diagram>
</mxfile>
